<svg width="60" height="60" viewBox="0 0 60 60" fill="none" xmlns="http://www.w3.org/2000/svg">
<path fill-rule="evenodd" clip-rule="evenodd" d="M30.0329 6.55597e-05C13.4959 -0.0340907 0.17667 13.2826 0.00169843 29.6648C-0.173273 46.3203 13.1929 59.9443 29.9347 59.9998C46.5229 60.0511 59.9872 46.585 60 30.0106C60.0128 13.4448 46.5912 0.00433509 30.0329 6.55597e-05ZM29.7896 56.7763C15.0664 56.7123 3.18107 44.6679 3.21521 29.9252C3.24935 15.127 15.3608 3.11256 30.0457 3.22357C44.7006 3.15952 56.8164 15.174 56.7865 30.0106C56.7566 44.9113 44.7817 56.8447 29.7896 56.7763ZM30.0039 4.5685C15.972 4.5685 4.57747 15.934 4.56894 29.9338C4.5604 43.9123 15.7543 55.376 29.9399 55.4315C44.0016 55.4912 55.4303 44.0489 55.4346 29.9936C55.4431 15.9596 44.0486 4.56423 30.0039 4.56423V4.5685ZM37.6173 33.2299C36.3285 33.6995 34.9714 33.802 33.6186 33.8319C32.1773 33.8657 30.7339 33.8597 29.2914 33.8537H29.291C28.7304 33.8513 28.1699 33.849 27.6098 33.849C27.0123 33.849 26.7136 34.1393 26.7136 34.72V46.1879C26.7136 46.9991 26.7136 46.9991 25.9198 46.9991H21.076C20.5298 46.9991 20.2567 46.7174 20.2567 46.1538V30.1217V14.0341C20.2567 13.2613 20.2567 13.257 21.0248 13.257C22.1177 13.257 23.2106 13.2551 24.3035 13.2532C27.2179 13.2481 30.1323 13.243 33.0467 13.2741C35.2232 13.2997 37.3826 13.4961 39.3115 14.6958C42.205 16.4933 43.8907 19.055 44.3174 22.445C44.8765 26.8768 42.2391 31.5434 37.6173 33.2256V33.2299ZM30.0448 19.0313C31.3527 19.0293 32.6606 19.0274 33.9685 19.055L33.9728 19.0593C36.3114 19.1063 38.1123 20.9294 38.2788 23.3288C38.4239 25.438 36.7766 27.5471 34.6684 27.893C33.96 28.0083 33.2302 28.0296 32.509 28.0381C31.3357 28.0537 30.1625 28.0511 28.9893 28.0486C28.5494 28.0476 28.1094 28.0467 27.6695 28.0467C27.0322 28.0467 26.7136 27.7194 26.7136 27.0647V23.5039C26.7136 23.1195 26.7147 22.7354 26.7159 22.3516C26.7186 21.4564 26.7212 20.562 26.7093 19.6656C26.7008 19.2301 26.816 19.0209 27.2982 19.0252C28.2137 19.0339 29.1293 19.0326 30.0448 19.0313Z" fill="#FFDF23"/>
</svg>
