<svg width="80" height="16" viewBox="0 0 80 16" fill="none" xmlns="http://www.w3.org/2000/svg">
<path fill-rule="evenodd" clip-rule="evenodd" d="M15.8829 6.58546H18.1937V4.8723H15.8521V3.09627C15.8521 2.20039 16.3451 1.69745 17.1153 1.69745C17.3926 1.69745 17.7624 1.69745 18.0243 1.76031V0.11002C17.7008 0.0314342 17.254 0 16.7918 0C14.9894 0 13.9727 1.24165 13.9727 3.0334V4.8723H11.8775V6.58546H13.9727V15.6542H15.8829V6.58546ZM5.42268 15.9057C8.53457 15.9057 10.8146 13.4853 10.8146 10.2475L10.7992 10.2633C10.7992 7.02554 8.53457 4.60511 5.40728 4.60511C2.27999 4.60511 0 6.99411 0 10.2475C0 13.501 2.3108 15.9057 5.42268 15.9057ZM5.42268 14.1925C3.32756 14.1925 1.87945 12.4951 1.87945 10.2475C1.87945 8 3.32756 6.30255 5.42268 6.30255C7.51781 6.30255 8.95051 8 8.95051 10.2475C8.95051 12.4951 7.51781 14.1925 5.42268 14.1925ZM19.5186 8.08644C19.5224 3.51681 22.8179 0.188605 27.2829 0.188605C31.1034 0.188605 33.7531 2.45187 34.5234 5.611H32.5515C31.9199 3.48919 30.025 2.01179 27.3291 2.01179C23.9245 2.01179 21.4751 4.54224 21.4751 8.07858C21.4751 11.6149 23.9553 14.1454 27.3291 14.1454C30.1021 14.1454 32.1664 12.4794 32.7056 10.3418H34.6774C34.0304 13.4853 31.2112 15.9843 27.2829 15.9843C22.8179 15.9843 19.5224 12.6561 19.5186 8.08644ZM19.5186 8.08644L19.5186 8.0943V8.07858L19.5186 8.08644ZM44.3058 0.188605C39.8228 0.188605 36.5107 3.52063 36.5107 8.0943C36.5107 12.668 39.8382 16 44.3212 16C48.8042 16 52.1163 12.668 52.1163 8.0943C52.1163 3.52063 48.7888 0.188605 44.3058 0.188605ZM44.3212 2.01179C47.695 2.01179 50.1906 4.52652 50.1906 8.0943C50.1906 11.6306 47.7104 14.1768 44.3366 14.1768C40.9628 14.1768 38.4672 11.6464 38.4672 8.0943C38.4672 4.54224 40.9474 2.01179 44.3212 2.01179ZM64.4252 15.6385L61.0668 10.2633C60.7895 10.279 60.5122 10.2947 60.2349 10.2947H56.6301V15.6228H54.689V0.550098H60.2349C63.963 0.550098 66.166 2.45187 66.166 5.43811C66.166 7.55992 65.0414 9.14735 63.0079 9.88605L66.7206 15.6542H64.4252V15.6385ZM64.2249 5.4224C64.2249 3.37918 62.6536 2.31041 60.0809 2.31041H56.6301V8.53438H60.0809C62.6536 8.53438 64.2249 7.46562 64.2249 5.4224ZM77.9357 4.71513H79.923C79.7381 2.07466 77.3503 0.188605 74.0843 0.188605C70.8184 0.188605 68.4152 1.72888 68.4152 4.2279C68.4152 6.72692 70.1098 7.95285 73.4527 8.67583C76.657 9.36739 78.0127 10.0432 78.0127 11.725C78.0127 13.2338 76.4414 14.2711 74.223 14.2711C71.7427 14.2711 70.1406 12.9666 69.9403 11.1434H67.953C68.1533 14.0668 70.6489 15.9843 74.0997 15.9843C77.3965 15.9843 80 14.334 80 11.6149C80 9.3831 78.5365 7.93713 74.9008 7.15128C71.7427 6.47544 70.3717 5.79961 70.3717 4.2279C70.3717 2.86051 71.7119 1.88605 74.0073 1.88605C76.3027 1.88605 77.7354 3.11198 77.9357 4.71513Z" fill="black"/>
</svg>
